# xmcd
#
# Track frame offsets: 
#        150
#        19258
#        43516
#        91637
#        102382
#        118860
#        135278
#        159373
#        180785
#        197158
#        230060
#        247288
#        265617
#
# Disc length: 4005 seconds
#
# Revision: 2
# Processed by: cddbd v1.5.2PL0 Copyright (c) Steve Scherf et al.
# Submitted via: ExactAudioCopy v1.0b4
#
DISCID=a30fa30d
DTITLE=Roy Buchanan - Live at Rockpalast
DYEAR=2011
DGENRE=Blues
TTITLE0=Thing in G (Short Fuse)
TTITLE1=Green Onions
TTITLE2=Roy's Blues (Roy's Bluz)
TTITLE3=Walk Don't Run
TTITLE4=Sweet Dreams
TTITLE5=Peter Gunn
TTITLE6=Blues in D (Blues Shuffle Instrumental)
TTITLE7=Hey Joe
TTITLE8=Foxy Lady
TTITLE9=Messiah (Messiah Will Come Again)
TTITLE10=Night Train
TTITLE11=Linda Lou
TTITLE12=Wayfaring Pilgrim
EXTD=
EXTT0=
EXTT1=
EXTT2=
EXTT3=
EXTT4=
EXTT5=
EXTT6=
EXTT7=
EXTT8=
EXTT9=
EXTT10=
EXTT11=
EXTT12=
PLAYORDER=
